<svg width="36" height="33" viewBox="0 0 36 33" fill="none" xmlns="http://www.w3.org/2000/svg">
<path d="M25 23C17.7308 23 11.2692 23 4 23" stroke="#243E54" stroke-width="3" stroke-linecap="round" stroke-linejoin="round"/>
<path d="M27.1852 16.2168C19.7749 14.6912 13.188 13.335 5.77777 11.8094" stroke="#243E54" stroke-width="3" stroke-linecap="round" stroke-linejoin="round"/>
<path d="M10 6C10.3462 8.07692 10.6538 9.92308 11 12" stroke="#243E54" stroke-width="3" stroke-linecap="round" stroke-linejoin="round"/>
<path d="M17 6C17 8.42308 17 10.5769 17 13" stroke="#243E54" stroke-width="3" stroke-linecap="round" stroke-linejoin="round"/>
<path d="M25 6C24.3077 8.76923 23.6923 11.2308 23 14" stroke="#243E54" stroke-width="3" stroke-linecap="round" stroke-linejoin="round"/>
<path d="M34 2C30.8846 9.26923 28.1154 15.7308 25 23" stroke="#243E54" stroke-width="3" stroke-linecap="round" stroke-linejoin="round"/>
<path d="M2 5.51367C3.30769 7.69316 4.47009 9.63048 5.77778 11.81" stroke="#243E54" stroke-width="3" stroke-linecap="round" stroke-linejoin="round"/>
<path d="M2 5.51367C12.2436 5.51367 21.349 5.51367 31.5926 5.51367" stroke="#243E54" stroke-width="3" stroke-linecap="round" stroke-linejoin="round"/>
<path d="M2.25 29.5C2.25 27.7051 3.70507 26.25 5.5 26.25C7.29493 26.25 8.75 27.7051 8.75 29.5C8.75 31.2949 7.29493 32.75 5.5 32.75C3.70507 32.75 2.25 31.2949 2.25 29.5Z" fill="#243E54" stroke="#243E54" stroke-width="0.5"/>
<path d="M20.25 29.5C20.25 27.7051 21.7051 26.25 23.5 26.25C25.2949 26.25 26.75 27.7051 26.75 29.5C26.75 31.2949 25.2949 32.75 23.5 32.75C21.7051 32.75 20.25 31.2949 20.25 29.5Z" fill="#243E54" stroke="#243E54" stroke-width="0.5"/>
</svg>
