<?xml version="1.0" standalone="no"?>
<!DOCTYPE svg PUBLIC "-//W3C//DTD SVG 20010904//EN"
 "http://www.w3.org/TR/2001/REC-SVG-20010904/DTD/svg10.dtd">
<svg version="1.0" xmlns="http://www.w3.org/2000/svg"
 width="437.000000pt" height="213.000000pt" viewBox="0 0 437.000000 213.000000"
 preserveAspectRatio="xMidYMid meet">

<g transform="translate(0.000000,213.000000) scale(0.100000,-0.100000)"
fill="#000000" stroke="none">
<path d="M961 2099 c-234 -28 -439 -127 -609 -293 -515 -500 -382 -1359 260
-1682 162 -82 366 -123 540 -109 l88 7 0 379 0 378 -42 -19 c-30 -14 -66 -20
-119 -20 -65 0 -85 4 -137 30 -66 33 -118 85 -154 152 -19 36 -23 58 -23 138
0 87 3 100 30 149 80 145 248 207 402 149 77 -29 152 -104 181 -181 22 -57 22
-69 22 -612 l0 -555 363 2 362 3 0 580 c-1 552 -2 585 -22 676 -26 119 -77
247 -139 347 -67 107 -235 272 -342 336 -197 117 -447 172 -661 145z"/>
<path d="M1605 2067 c110 -58 166 -99 257 -185 92 -88 159 -176 220 -287 l43
-80 3 285 c1 157 0 290 -3 297 -3 10 -71 13 -302 13 l-298 -1 80 -42z"/>
<path d="M3180 2100 c-166 -20 -339 -85 -482 -181 -86 -59 -213 -189 -273
-279 -62 -94 -120 -227 -148 -339 -17 -71 -21 -114 -21 -246 1 -139 4 -173 27
-256 50 -189 140 -345 276 -479 144 -143 286 -223 490 -277 82 -22 117 -26
246 -26 167 0 267 20 417 82 223 93 427 295 535 528 36 79 77 223 85 306 l6
47 -363 0 -364 0 -25 -55 c-113 -248 -468 -247 -584 3 -38 82 -38 185 1 264
97 198 345 250 503 105 30 -27 65 -71 80 -103 l26 -54 363 0 363 0 -5 43 c-52
443 -390 812 -828 901 -95 19 -235 26 -325 16z"/>
</g>
</svg>
